<svg width="24" height="24" viewBox="0 0 24 24" fill="none"
    xmlns="http://www.w3.org/2000/svg">
    <g clip-path="url(#clip0_7802_83219)">
        <path d="M16.425 1.97998C15.9356 2.0081 15.4537 2.1281 15 2.35498L12.36 3.64498H4.85996L0.599962 2.60998C0.536212 2.59123 0.470587 2.58748 0.404962 2.59498C0.172462 2.6231 -0.00378781 2.81435 -0.0150378 3.04873C-0.0262878 3.28123 0.131212 3.48935 0.359962 3.53998L4.67996 4.58998L4.73996 4.60498H10.395L6.31496 6.59998C6.29809 6.60748 6.28684 6.62248 6.26996 6.62998C5.63621 6.90935 5.46934 7.7756 5.93996 8.27998L5.92496 8.29498C5.93246 8.30248 5.94746 8.30248 5.95496 8.30998C7.38371 9.8756 9.64684 10.395 11.64 9.61498H11.655L14.475 8.51998L20.295 14.355C20.7356 14.7956 20.7356 15.4894 20.295 15.93C19.8543 16.3706 19.1606 16.3706 18.72 15.93C18.5287 15.7762 18.2531 15.7912 18.0787 15.9637C17.9062 16.1381 17.8912 16.4137 18.045 16.605C18.4856 17.0456 18.4856 17.7544 18.045 18.195C17.6043 18.6356 16.9106 18.6356 16.47 18.195L16.125 17.85C15.9337 17.6962 15.6581 17.7112 15.4837 17.8837C15.3112 18.0581 15.2962 18.3337 15.45 18.525C15.8906 18.9656 15.8906 19.6744 15.45 20.115C15.0093 20.5556 14.3156 20.5556 13.875 20.115L13.545 19.77C13.3593 19.5787 13.0537 19.5769 12.8625 19.7625C12.6712 19.9481 12.6693 20.2537 12.855 20.445C13.2956 20.8856 13.2956 21.5944 12.855 22.035C12.4143 22.4756 11.7206 22.4756 11.28 22.035L10.68 21.435L11.04 21.075C11.7431 20.3719 11.7431 19.2281 11.04 18.525C10.6893 18.1744 10.2262 18 9.76496 18C9.75934 18 9.75559 18 9.74996 18C9.75746 17.5275 9.58309 17.0531 9.22496 16.695C8.87434 16.3444 8.41121 16.17 7.94996 16.17C7.92559 16.17 7.89934 16.1681 7.87496 16.17C7.88996 15.6881 7.71746 15.2025 7.34996 14.835C6.99934 14.4844 6.53621 14.295 6.07496 14.295C6.05059 14.295 6.02434 14.2931 5.99996 14.295C6.01496 13.8131 5.84246 13.3275 5.47496 12.96C5.12434 12.6094 4.66121 12.435 4.19996 12.435C3.73871 12.435 3.27559 12.6094 2.92496 12.96L2.48996 13.395L0.554962 13.065C0.524962 13.0575 0.494962 13.0519 0.464962 13.05C0.200587 13.0331 -0.0281628 13.2356 -0.0450378 13.5C-0.0619127 13.7644 0.140587 13.9931 0.404962 14.01L1.97996 14.295C1.83746 14.8856 1.98559 15.5306 2.44496 15.99C2.81621 16.3612 3.30934 16.5356 3.79496 16.515C3.77434 17.0006 3.94871 17.4937 4.31996 17.865C4.69121 18.2362 5.18434 18.4106 5.66996 18.39C5.65496 18.8719 5.82746 19.3575 6.19496 19.725C6.55309 20.0831 7.02746 20.2575 7.49996 20.25C7.48871 20.7244 7.65746 21.2025 8.00996 21.555L8.02496 21.57C8.52559 22.0594 9.24559 22.1887 9.86996 21.975L10.605 22.71C11.4112 23.5162 12.7387 23.5162 13.545 22.71C13.9368 22.3181 14.1187 21.8006 14.13 21.285C14.8237 21.4687 15.585 21.33 16.125 20.79C16.5168 20.3981 16.7137 19.8806 16.725 19.365C17.4168 19.5469 18.18 19.41 18.72 18.87C19.1812 18.4087 19.3556 17.7806 19.29 17.175C19.8956 17.2425 20.5237 17.0662 20.985 16.605C21.5006 16.0894 21.6843 15.3656 21.54 14.7L21.825 14.415L23.595 14.16C23.8593 14.1187 24.0412 13.8694 24 13.605C23.9587 13.3406 23.7093 13.1587 23.445 13.2L21.525 13.5L21.375 13.515L21.09 13.8C21.0562 13.7606 21.0225 13.7175 20.985 13.68L15.075 7.76998C15.0525 7.74748 15.0262 7.72685 15 7.70998C14.9943 7.70435 14.9906 7.7006 14.985 7.69498C14.8593 7.50935 14.6231 7.43623 14.415 7.51498L11.295 8.71498C9.65434 9.36373 7.80746 8.94185 6.64496 7.64998L6.62996 7.63498C6.56809 7.5731 6.56434 7.52998 6.64496 7.49998H6.67496L6.68996 7.48498L12.615 4.58998C12.7162 4.57498 12.8118 4.5281 12.885 4.45498L15.42 3.20998H15.435C16.32 2.76748 17.3531 2.85748 18.165 3.40498L18.345 3.61498L18.39 3.67498L18.45 3.70498C19.3218 4.30498 20.3718 4.46435 21.36 4.19998V4.21498L21.39 4.19998L23.625 3.73498C23.8856 3.67685 24.0506 3.4181 23.9925 3.15748C23.9343 2.89685 23.6756 2.73185 23.415 2.78998L21.165 3.26998L21.15 3.28498H21.135C20.4187 3.48373 19.68 3.35248 19.035 2.92498L18.855 2.71498L18.81 2.66998L18.75 2.62498C18.1987 2.23873 17.5687 2.02873 16.92 1.97998C16.7568 1.96873 16.5881 1.9706 16.425 1.97998ZM4.19996 13.365C4.40996 13.365 4.62371 13.4587 4.79996 13.635C5.15246 13.9875 5.15246 14.4825 4.79996 14.835L4.42496 15.195L4.37996 15.24L4.31996 15.315C3.96746 15.6675 3.47246 15.6675 3.11996 15.315C2.83121 15.0262 2.78809 14.6475 2.96996 14.325C3.05434 14.265 3.11621 14.1825 3.14996 14.085L3.53996 13.71L3.59996 13.635C3.77621 13.4587 3.98996 13.365 4.19996 13.365ZM6.07496 15.24C6.28496 15.24 6.49871 15.3337 6.67496 15.51C7.02746 15.8625 7.02746 16.3425 6.67496 16.695L6.19496 17.175C5.84246 17.5275 5.34746 17.5275 4.99496 17.175C4.64246 16.8225 4.64246 16.3425 4.99496 15.99L5.47496 15.51C5.65121 15.3337 5.86496 15.24 6.07496 15.24ZM7.94996 17.115C8.15996 17.115 8.35871 17.2087 8.53496 17.385C8.82559 17.6756 8.87434 18.0544 8.68496 18.375C8.61934 18.4237 8.54996 18.465 8.48996 18.525L8.00996 19.005V19.02H7.99496C7.94246 19.0781 7.90309 19.1381 7.85996 19.2C7.53934 19.3894 7.16059 19.3406 6.86996 19.05C6.51746 18.6975 6.51746 18.2175 6.86996 17.865L7.22996 17.49L7.31996 17.415L7.34996 17.385C7.52621 17.2087 7.73996 17.115 7.94996 17.115ZM9.76496 18.945C9.97496 18.945 10.1887 19.0237 10.365 19.2C10.7175 19.5525 10.7175 20.0475 10.365 20.4L9.88496 20.88C9.84371 20.9212 9.80996 20.9681 9.76496 21C9.76121 21.0019 9.75371 20.9981 9.74996 21C9.41434 21.2325 8.99434 21.1894 8.68496 20.88C8.45809 20.6531 8.40559 20.1994 8.56496 19.86C8.62496 19.8131 8.69059 19.7794 8.74496 19.725L9.22496 19.245C9.28871 19.1812 9.33746 19.1062 9.38996 19.035C9.50996 18.975 9.63934 18.945 9.76496 18.945Z" fill="currentColor"/>
        <path d="M16.425 1.97998C15.9356 2.0081 15.4537 2.1281 15 2.35498L12.36 3.64498H4.85996L0.599962 2.60998C0.536212 2.59123 0.470587 2.58748 0.404962 2.59498C0.172462 2.6231 -0.00378781 2.81435 -0.0150378 3.04873C-0.0262878 3.28123 0.131212 3.48935 0.359962 3.53998L4.67996 4.58998L4.73996 4.60498H10.395L6.31496 6.59998C6.29809 6.60748 6.28684 6.62248 6.26996 6.62998C5.63621 6.90935 5.46934 7.7756 5.93996 8.27998L5.92496 8.29498C5.93246 8.30248 5.94746 8.30248 5.95496 8.30998C7.38371 9.8756 9.64684 10.395 11.64 9.61498H11.655L14.475 8.51998L20.295 14.355C20.7356 14.7956 20.7356 15.4894 20.295 15.93C19.8543 16.3706 19.1606 16.3706 18.72 15.93C18.5287 15.7762 18.2531 15.7912 18.0787 15.9637C17.9062 16.1381 17.8912 16.4137 18.045 16.605C18.4856 17.0456 18.4856 17.7544 18.045 18.195C17.6043 18.6356 16.9106 18.6356 16.47 18.195L16.125 17.85C15.9337 17.6962 15.6581 17.7112 15.4837 17.8837C15.3112 18.0581 15.2962 18.3337 15.45 18.525C15.8906 18.9656 15.8906 19.6744 15.45 20.115C15.0093 20.5556 14.3156 20.5556 13.875 20.115L13.545 19.77C13.3593 19.5787 13.0537 19.5769 12.8625 19.7625C12.6712 19.9481 12.6693 20.2537 12.855 20.445C13.2956 20.8856 13.2956 21.5944 12.855 22.035C12.4143 22.4756 11.7206 22.4756 11.28 22.035L10.68 21.435L11.04 21.075C11.7431 20.3719 11.7431 19.2281 11.04 18.525C10.6893 18.1744 10.2262 18 9.76496 18C9.75934 18 9.75559 18 9.74996 18C9.75746 17.5275 9.58309 17.0531 9.22496 16.695C8.87434 16.3444 8.41121 16.17 7.94996 16.17C7.92559 16.17 7.89934 16.1681 7.87496 16.17C7.88996 15.6881 7.71746 15.2025 7.34996 14.835C6.99934 14.4844 6.53621 14.295 6.07496 14.295C6.05059 14.295 6.02434 14.2931 5.99996 14.295C6.01496 13.8131 5.84246 13.3275 5.47496 12.96C5.12434 12.6094 4.66121 12.435 4.19996 12.435C3.73871 12.435 3.27559 12.6094 2.92496 12.96L2.48996 13.395L0.554962 13.065C0.524962 13.0575 0.494962 13.0519 0.464962 13.05C0.200587 13.0331 -0.0281628 13.2356 -0.0450378 13.5C-0.0619127 13.7644 0.140587 13.9931 0.404962 14.01L1.97996 14.295C1.83746 14.8856 1.98559 15.5306 2.44496 15.99C2.81621 16.3612 3.30934 16.5356 3.79496 16.515C3.77434 17.0006 3.94871 17.4937 4.31996 17.865C4.69121 18.2362 5.18434 18.4106 5.66996 18.39C5.65496 18.8719 5.82746 19.3575 6.19496 19.725C6.55309 20.0831 7.02746 20.2575 7.49996 20.25C7.48871 20.7244 7.65746 21.2025 8.00996 21.555L8.02496 21.57C8.52559 22.0594 9.24559 22.1887 9.86996 21.975L10.605 22.71C11.4112 23.5162 12.7387 23.5162 13.545 22.71C13.9368 22.3181 14.1187 21.8006 14.13 21.285C14.8237 21.4687 15.585 21.33 16.125 20.79C16.5168 20.3981 16.7137 19.8806 16.725 19.365C17.4168 19.5469 18.18 19.41 18.72 18.87C19.1812 18.4087 19.3556 17.7806 19.29 17.175C19.8956 17.2425 20.5237 17.0662 20.985 16.605C21.5006 16.0894 21.6843 15.3656 21.54 14.7L21.825 14.415L23.595 14.16C23.8593 14.1187 24.0412 13.8694 24 13.605C23.9587 13.3406 23.7093 13.1587 23.445 13.2L21.525 13.5L21.375 13.515L21.09 13.8C21.0562 13.7606 21.0225 13.7175 20.985 13.68L15.075 7.76998C15.0525 7.74748 15.0262 7.72685 15 7.70998C14.9943 7.70435 14.9906 7.7006 14.985 7.69498C14.8593 7.50935 14.6231 7.43623 14.415 7.51498L11.295 8.71498C9.65434 9.36373 7.80746 8.94185 6.64496 7.64998L6.62996 7.63498C6.56809 7.5731 6.56434 7.52998 6.64496 7.49998H6.67496L6.68996 7.48498L12.615 4.58998C12.7162 4.57498 12.8118 4.5281 12.885 4.45498L15.42 3.20998H15.435C16.32 2.76748 17.3531 2.85748 18.165 3.40498L18.345 3.61498L18.39 3.67498L18.45 3.70498C19.3218 4.30498 20.3718 4.46435 21.36 4.19998V4.21498L21.39 4.19998L23.625 3.73498C23.8856 3.67685 24.0506 3.4181 23.9925 3.15748C23.9343 2.89685 23.6756 2.73185 23.415 2.78998L21.165 3.26998L21.15 3.28498H21.135C20.4187 3.48373 19.68 3.35248 19.035 2.92498L18.855 2.71498L18.81 2.66998L18.75 2.62498C18.1987 2.23873 17.5687 2.02873 16.92 1.97998C16.7568 1.96873 16.5881 1.9706 16.425 1.97998ZM4.19996 13.365C4.40996 13.365 4.62371 13.4587 4.79996 13.635C5.15246 13.9875 5.15246 14.4825 4.79996 14.835L4.42496 15.195L4.37996 15.24L4.31996 15.315C3.96746 15.6675 3.47246 15.6675 3.11996 15.315C2.83121 15.0262 2.78809 14.6475 2.96996 14.325C3.05434 14.265 3.11621 14.1825 3.14996 14.085L3.53996 13.71L3.59996 13.635C3.77621 13.4587 3.98996 13.365 4.19996 13.365ZM6.07496 15.24C6.28496 15.24 6.49871 15.3337 6.67496 15.51C7.02746 15.8625 7.02746 16.3425 6.67496 16.695L6.19496 17.175C5.84246 17.5275 5.34746 17.5275 4.99496 17.175C4.64246 16.8225 4.64246 16.3425 4.99496 15.99L5.47496 15.51C5.65121 15.3337 5.86496 15.24 6.07496 15.24ZM7.94996 17.115C8.15996 17.115 8.35871 17.2087 8.53496 17.385C8.82559 17.6756 8.87434 18.0544 8.68496 18.375C8.61934 18.4237 8.54996 18.465 8.48996 18.525L8.00996 19.005V19.02H7.99496C7.94246 19.0781 7.90309 19.1381 7.85996 19.2C7.53934 19.3894 7.16059 19.3406 6.86996 19.05C6.51746 18.6975 6.51746 18.2175 6.86996 17.865L7.22996 17.49L7.31996 17.415L7.34996 17.385C7.52621 17.2087 7.73996 17.115 7.94996 17.115ZM9.76496 18.945C9.97496 18.945 10.1887 19.0237 10.365 19.2C10.7175 19.5525 10.7175 20.0475 10.365 20.4L9.88496 20.88C9.84371 20.9212 9.80996 20.9681 9.76496 21C9.76121 21.0019 9.75371 20.9981 9.74996 21C9.41434 21.2325 8.99434 21.1894 8.68496 20.88C8.45809 20.6531 8.40559 20.1994 8.56496 19.86C8.62496 19.8131 8.69059 19.7794 8.74496 19.725L9.22496 19.245C9.28871 19.1812 9.33746 19.1062 9.38996 19.035C9.50996 18.975 9.63934 18.945 9.76496 18.945Z" fill="currentColor" fill-opacity="0.2"/>
    </g>
    <defs>
        <clipPath id="clip0_7802_83219">
            <rect width="24" height="24" fill="white"/>
        </clipPath>
    </defs>
</svg>
