<svg width="24" height="24" viewBox="0 0 24 24" fill="none"
    xmlns="http://www.w3.org/2000/svg">
    <g clip-path="url(#clip0_7557_75389)">
        <path d="M2.87996 3.84003C1.82108 3.84003 0.959961 4.70115 0.959961 5.76003V17.28C0.959961 18.3389 1.82108 19.2 2.87996 19.2H13.4643C13.4514 19.0411 13.44 18.8823 13.44 18.72C13.44 18.5578 13.4514 18.3989 13.4643 18.24H2.87996C2.35052 18.24 1.91996 17.8095 1.91996 17.28V5.76003C1.91996 5.23059 2.35052 4.80003 2.87996 4.80003H21.12C21.6494 4.80003 22.08 5.23059 22.08 5.76003V13.7363C22.4246 13.936 22.7452 14.1707 23.04 14.4347V5.76003C23.04 4.70115 22.1788 3.84003 21.12 3.84003H2.87996ZM8.12059 6.72003C7.0551 6.73958 6.30324 7.24234 6.00559 7.95003C5.73946 8.58276 5.79954 9.29178 5.95215 9.97784C5.86432 10.1227 5.77841 10.3284 5.78809 10.5975V10.5985C5.80147 10.9673 5.94217 11.257 6.09184 11.4357C6.16825 11.5269 6.19829 11.5298 6.26527 11.5763C6.34175 11.8163 6.42547 12.0587 6.55027 12.225C6.63661 12.3401 6.73332 12.3943 6.81559 12.4744C6.82115 12.6728 6.82719 12.857 6.81746 13.0425C6.77967 13.1198 6.69719 13.211 6.4734 13.3238C6.23117 13.4458 5.8849 13.5656 5.51996 13.7241C5.15502 13.8826 4.76347 14.0823 4.43809 14.415C4.1127 14.7478 3.87613 15.2247 3.8409 15.811C3.83694 15.8763 3.8464 15.9418 3.86868 16.0034C3.89096 16.0649 3.92561 16.1213 3.97048 16.169C4.01535 16.2166 4.0695 16.2546 4.1296 16.2806C4.18971 16.3066 4.25449 16.32 4.31996 16.32H12C12.0654 16.32 12.1302 16.3066 12.1903 16.2806C12.2504 16.2546 12.3046 16.2166 12.3494 16.169C12.3943 16.1213 12.429 16.0649 12.4512 16.0034C12.4735 15.9418 12.483 15.8763 12.479 15.811C12.4438 15.2247 12.2072 14.7478 11.8818 14.415C11.5564 14.0823 11.164 13.8825 10.799 13.7241C10.434 13.5656 10.0879 13.4458 9.84559 13.3238C9.62237 13.2114 9.54055 13.1205 9.50246 13.0435C9.49262 12.8568 9.49877 12.6718 9.50434 12.4716C9.59697 12.3839 9.7094 12.3244 9.79121 12.2063C9.90825 12.0373 9.97674 11.8041 10.0434 11.5744C10.2004 11.4608 10.5112 11.1986 10.5112 10.6519C10.5112 10.4338 10.4 10.3018 10.3368 10.1419C10.451 9.77335 10.5865 9.22046 10.5253 8.61659C10.4924 8.29256 10.4036 7.95226 10.1671 7.66596C9.97089 7.42832 9.65324 7.28914 9.30371 7.2394C9.02605 6.93651 8.6363 6.72003 8.12996 6.72003C8.12684 6.72 8.12371 6.72 8.12059 6.72003ZM8.13277 7.68096C8.44632 7.68269 8.6456 7.85568 8.6784 7.91346C8.7203 7.98717 8.78097 8.04847 8.85425 8.09112C8.92753 8.13377 9.0108 8.15625 9.09559 8.15628C9.31157 8.15628 9.36537 8.20203 9.42746 8.27721C9.48955 8.3524 9.54891 8.5054 9.56996 8.71315C9.61206 9.12866 9.49052 9.71308 9.41152 9.95065C9.38369 10.0347 9.37965 10.1248 9.39983 10.211C9.42002 10.2972 9.46365 10.3761 9.5259 10.4391C9.43396 10.3468 9.55121 10.4856 9.55121 10.6519C9.55121 10.7396 9.40402 10.8713 9.40402 10.8713C9.34527 10.9085 9.29531 10.958 9.25759 11.0165C9.21987 11.0749 9.19531 11.1408 9.18559 11.2097C9.16322 11.3678 9.0892 11.5327 9.00184 11.6588C8.91447 11.7849 8.79086 11.8701 8.81715 11.8575C8.73544 11.8966 8.66647 11.9581 8.6182 12.0347C8.56992 12.1113 8.54431 12.2001 8.54434 12.2907C8.54434 12.5727 8.51118 12.8382 8.54621 13.2291C8.54999 13.2717 8.55945 13.3137 8.57434 13.3538C8.73095 13.7746 9.08185 14.0132 9.41434 14.1807C9.74682 14.3481 10.0996 14.4664 10.4175 14.6044C10.7353 14.7424 11.0104 14.8969 11.1956 15.0863C11.2603 15.1525 11.262 15.282 11.309 15.36H5.0109C5.05795 15.282 5.05959 15.1525 5.12434 15.0863C5.30955 14.8969 5.5846 14.7424 5.90246 14.6044C6.22032 14.4664 6.57313 14.3482 6.90559 14.1807C7.23804 14.0131 7.5892 13.7738 7.74559 13.3528C7.7604 13.313 7.76985 13.2714 7.77371 13.2291C7.80873 12.8379 7.77559 12.5727 7.77559 12.2907C7.7757 12.203 7.75182 12.117 7.70654 12.042C7.66125 11.967 7.5963 11.9058 7.51871 11.865C7.59325 11.9041 7.42112 11.7867 7.31809 11.6494C7.21505 11.5121 7.13109 11.3386 7.11371 11.2116C7.10295 11.1327 7.07272 11.0577 7.02575 10.9934C6.97878 10.929 6.91654 10.8774 6.84465 10.8432C6.84465 10.8432 6.85883 10.8559 6.82777 10.8188C6.79672 10.7817 6.75296 10.7229 6.74715 10.5628C6.74609 10.5148 6.79496 10.4391 6.79496 10.4391C6.85357 10.38 6.89579 10.3066 6.91749 10.2262C6.93918 10.1459 6.93961 10.0612 6.91871 9.98065C6.74984 9.3328 6.7296 8.70497 6.89059 8.32221C7.05106 7.94069 7.32086 7.69739 8.13277 7.68096ZM13.92 8.64003C13.8564 8.63913 13.7932 8.65088 13.7342 8.6746C13.6752 8.69832 13.6214 8.73353 13.5761 8.77819C13.5308 8.82285 13.4949 8.87607 13.4703 8.93475C13.4458 8.99344 13.4331 9.05641 13.4331 9.12003C13.4331 9.18364 13.4458 9.24662 13.4703 9.3053C13.4949 9.36398 13.5308 9.4172 13.5761 9.46186C13.6214 9.50653 13.6752 9.54174 13.7342 9.56546C13.7932 9.58918 13.8564 9.60093 13.92 9.60003H19.68C19.7436 9.60093 19.8067 9.58918 19.8657 9.56546C19.9248 9.54174 19.9785 9.50653 20.0238 9.46186C20.0691 9.4172 20.1051 9.36398 20.1296 9.3053C20.1542 9.24662 20.1668 9.18364 20.1668 9.12003C20.1668 9.05641 20.1542 8.99344 20.1296 8.93475C20.1051 8.87607 20.0691 8.82285 20.0238 8.77819C19.9785 8.73353 19.9248 8.69832 19.8657 8.6746C19.8067 8.65088 19.7436 8.63913 19.68 8.64003H13.92ZM13.92 11.04C13.8564 11.0391 13.7932 11.0509 13.7342 11.0746C13.6752 11.0983 13.6214 11.1335 13.5761 11.1782C13.5308 11.2229 13.4949 11.2761 13.4703 11.3348C13.4458 11.3934 13.4331 11.4564 13.4331 11.52C13.4331 11.5836 13.4458 11.6466 13.4703 11.7053C13.4949 11.764 13.5308 11.8172 13.5761 11.8619C13.6214 11.9065 13.6752 11.9417 13.7342 11.9655C13.7932 11.9892 13.8564 12.0009 13.92 12H19.68C19.7436 12.0009 19.8067 11.9892 19.8657 11.9655C19.9248 11.9417 19.9785 11.9065 20.0238 11.8619C20.0691 11.8172 20.1051 11.764 20.1296 11.7053C20.1542 11.6466 20.1668 11.5836 20.1668 11.52C20.1668 11.4564 20.1542 11.3934 20.1296 11.3348C20.1051 11.2761 20.0691 11.2229 20.0238 11.1782C19.9785 11.1335 19.9248 11.0983 19.8657 11.0746C19.8067 11.0509 19.7436 11.0391 19.68 11.04H13.92ZM13.92 13.44C13.6545 13.44 13.44 13.6551 13.44 13.92C13.44 14.185 13.6545 14.4 13.92 14.4H16.0181C16.9301 13.7943 18.0235 13.44 19.2 13.44H13.92ZM19.2 14.4C16.56 14.4 14.4 16.56 14.4 19.2C14.4 21.84 16.56 24 19.2 24C21.84 24 24 21.84 24 19.2C24 16.56 21.84 14.4 19.2 14.4ZM19.2 15.36C21.312 15.36 23.04 17.088 23.04 19.2C23.04 21.312 21.312 23.04 19.2 23.04C17.088 23.04 15.36 21.312 15.36 19.2C15.36 17.088 17.088 15.36 19.2 15.36ZM21.2643 16.9922L18.6721 20.0157L17.0878 18.8157L16.5121 19.5844L18.7678 21.3122L21.9843 17.6157L21.2643 16.9922Z" fill="currentColor"/>
        <path d="M2.87996 3.84003C1.82108 3.84003 0.959961 4.70115 0.959961 5.76003V17.28C0.959961 18.3389 1.82108 19.2 2.87996 19.2H13.4643C13.4514 19.0411 13.44 18.8823 13.44 18.72C13.44 18.5578 13.4514 18.3989 13.4643 18.24H2.87996C2.35052 18.24 1.91996 17.8095 1.91996 17.28V5.76003C1.91996 5.23059 2.35052 4.80003 2.87996 4.80003H21.12C21.6494 4.80003 22.08 5.23059 22.08 5.76003V13.7363C22.4246 13.936 22.7452 14.1707 23.04 14.4347V5.76003C23.04 4.70115 22.1788 3.84003 21.12 3.84003H2.87996ZM8.12059 6.72003C7.0551 6.73958 6.30324 7.24234 6.00559 7.95003C5.73946 8.58276 5.79954 9.29178 5.95215 9.97784C5.86432 10.1227 5.77841 10.3284 5.78809 10.5975V10.5985C5.80147 10.9673 5.94217 11.257 6.09184 11.4357C6.16825 11.5269 6.19829 11.5298 6.26527 11.5763C6.34175 11.8163 6.42547 12.0587 6.55027 12.225C6.63661 12.3401 6.73332 12.3943 6.81559 12.4744C6.82115 12.6728 6.82719 12.857 6.81746 13.0425C6.77967 13.1198 6.69719 13.211 6.4734 13.3238C6.23117 13.4458 5.8849 13.5656 5.51996 13.7241C5.15502 13.8826 4.76347 14.0823 4.43809 14.415C4.1127 14.7478 3.87613 15.2247 3.8409 15.811C3.83694 15.8763 3.8464 15.9418 3.86868 16.0034C3.89096 16.0649 3.92561 16.1213 3.97048 16.169C4.01535 16.2166 4.0695 16.2546 4.1296 16.2806C4.18971 16.3066 4.25449 16.32 4.31996 16.32H12C12.0654 16.32 12.1302 16.3066 12.1903 16.2806C12.2504 16.2546 12.3046 16.2166 12.3494 16.169C12.3943 16.1213 12.429 16.0649 12.4512 16.0034C12.4735 15.9418 12.483 15.8763 12.479 15.811C12.4438 15.2247 12.2072 14.7478 11.8818 14.415C11.5564 14.0823 11.164 13.8825 10.799 13.7241C10.434 13.5656 10.0879 13.4458 9.84559 13.3238C9.62237 13.2114 9.54055 13.1205 9.50246 13.0435C9.49262 12.8568 9.49877 12.6718 9.50434 12.4716C9.59697 12.3839 9.7094 12.3244 9.79121 12.2063C9.90825 12.0373 9.97674 11.8041 10.0434 11.5744C10.2004 11.4608 10.5112 11.1986 10.5112 10.6519C10.5112 10.4338 10.4 10.3018 10.3368 10.1419C10.451 9.77335 10.5865 9.22046 10.5253 8.61659C10.4924 8.29256 10.4036 7.95226 10.1671 7.66596C9.97089 7.42832 9.65324 7.28914 9.30371 7.2394C9.02605 6.93651 8.6363 6.72003 8.12996 6.72003C8.12684 6.72 8.12371 6.72 8.12059 6.72003ZM8.13277 7.68096C8.44632 7.68269 8.6456 7.85568 8.6784 7.91346C8.7203 7.98717 8.78097 8.04847 8.85425 8.09112C8.92753 8.13377 9.0108 8.15625 9.09559 8.15628C9.31157 8.15628 9.36537 8.20203 9.42746 8.27721C9.48955 8.3524 9.54891 8.5054 9.56996 8.71315C9.61206 9.12866 9.49052 9.71308 9.41152 9.95065C9.38369 10.0347 9.37965 10.1248 9.39983 10.211C9.42002 10.2972 9.46365 10.3761 9.5259 10.4391C9.43396 10.3468 9.55121 10.4856 9.55121 10.6519C9.55121 10.7396 9.40402 10.8713 9.40402 10.8713C9.34527 10.9085 9.29531 10.958 9.25759 11.0165C9.21987 11.0749 9.19531 11.1408 9.18559 11.2097C9.16322 11.3678 9.0892 11.5327 9.00184 11.6588C8.91447 11.7849 8.79086 11.8701 8.81715 11.8575C8.73544 11.8966 8.66647 11.9581 8.6182 12.0347C8.56992 12.1113 8.54431 12.2001 8.54434 12.2907C8.54434 12.5727 8.51118 12.8382 8.54621 13.2291C8.54999 13.2717 8.55945 13.3137 8.57434 13.3538C8.73095 13.7746 9.08185 14.0132 9.41434 14.1807C9.74682 14.3481 10.0996 14.4664 10.4175 14.6044C10.7353 14.7424 11.0104 14.8969 11.1956 15.0863C11.2603 15.1525 11.262 15.282 11.309 15.36H5.0109C5.05795 15.282 5.05959 15.1525 5.12434 15.0863C5.30955 14.8969 5.5846 14.7424 5.90246 14.6044C6.22032 14.4664 6.57313 14.3482 6.90559 14.1807C7.23804 14.0131 7.5892 13.7738 7.74559 13.3528C7.7604 13.313 7.76985 13.2714 7.77371 13.2291C7.80873 12.8379 7.77559 12.5727 7.77559 12.2907C7.7757 12.203 7.75182 12.117 7.70654 12.042C7.66125 11.967 7.5963 11.9058 7.51871 11.865C7.59325 11.9041 7.42112 11.7867 7.31809 11.6494C7.21505 11.5121 7.13109 11.3386 7.11371 11.2116C7.10295 11.1327 7.07272 11.0577 7.02575 10.9934C6.97878 10.929 6.91654 10.8774 6.84465 10.8432C6.84465 10.8432 6.85883 10.8559 6.82777 10.8188C6.79672 10.7817 6.75296 10.7229 6.74715 10.5628C6.74609 10.5148 6.79496 10.4391 6.79496 10.4391C6.85357 10.38 6.89579 10.3066 6.91749 10.2262C6.93918 10.1459 6.93961 10.0612 6.91871 9.98065C6.74984 9.3328 6.7296 8.70497 6.89059 8.32221C7.05106 7.94069 7.32086 7.69739 8.13277 7.68096ZM13.92 8.64003C13.8564 8.63913 13.7932 8.65088 13.7342 8.6746C13.6752 8.69832 13.6214 8.73353 13.5761 8.77819C13.5308 8.82285 13.4949 8.87607 13.4703 8.93475C13.4458 8.99344 13.4331 9.05641 13.4331 9.12003C13.4331 9.18364 13.4458 9.24662 13.4703 9.3053C13.4949 9.36398 13.5308 9.4172 13.5761 9.46186C13.6214 9.50653 13.6752 9.54174 13.7342 9.56546C13.7932 9.58918 13.8564 9.60093 13.92 9.60003H19.68C19.7436 9.60093 19.8067 9.58918 19.8657 9.56546C19.9248 9.54174 19.9785 9.50653 20.0238 9.46186C20.0691 9.4172 20.1051 9.36398 20.1296 9.3053C20.1542 9.24662 20.1668 9.18364 20.1668 9.12003C20.1668 9.05641 20.1542 8.99344 20.1296 8.93475C20.1051 8.87607 20.0691 8.82285 20.0238 8.77819C19.9785 8.73353 19.9248 8.69832 19.8657 8.6746C19.8067 8.65088 19.7436 8.63913 19.68 8.64003H13.92ZM13.92 11.04C13.8564 11.0391 13.7932 11.0509 13.7342 11.0746C13.6752 11.0983 13.6214 11.1335 13.5761 11.1782C13.5308 11.2229 13.4949 11.2761 13.4703 11.3348C13.4458 11.3934 13.4331 11.4564 13.4331 11.52C13.4331 11.5836 13.4458 11.6466 13.4703 11.7053C13.4949 11.764 13.5308 11.8172 13.5761 11.8619C13.6214 11.9065 13.6752 11.9417 13.7342 11.9655C13.7932 11.9892 13.8564 12.0009 13.92 12H19.68C19.7436 12.0009 19.8067 11.9892 19.8657 11.9655C19.9248 11.9417 19.9785 11.9065 20.0238 11.8619C20.0691 11.8172 20.1051 11.764 20.1296 11.7053C20.1542 11.6466 20.1668 11.5836 20.1668 11.52C20.1668 11.4564 20.1542 11.3934 20.1296 11.3348C20.1051 11.2761 20.0691 11.2229 20.0238 11.1782C19.9785 11.1335 19.9248 11.0983 19.8657 11.0746C19.8067 11.0509 19.7436 11.0391 19.68 11.04H13.92ZM13.92 13.44C13.6545 13.44 13.44 13.6551 13.44 13.92C13.44 14.185 13.6545 14.4 13.92 14.4H16.0181C16.9301 13.7943 18.0235 13.44 19.2 13.44H13.92ZM19.2 14.4C16.56 14.4 14.4 16.56 14.4 19.2C14.4 21.84 16.56 24 19.2 24C21.84 24 24 21.84 24 19.2C24 16.56 21.84 14.4 19.2 14.4ZM19.2 15.36C21.312 15.36 23.04 17.088 23.04 19.2C23.04 21.312 21.312 23.04 19.2 23.04C17.088 23.04 15.36 21.312 15.36 19.2C15.36 17.088 17.088 15.36 19.2 15.36ZM21.2643 16.9922L18.6721 20.0157L17.0878 18.8157L16.5121 19.5844L18.7678 21.3122L21.9843 17.6157L21.2643 16.9922Z" fill="currentColor" fill-opacity="0.2"/>
    </g>
    <defs>
        <clipPath id="clip0_7557_75389">
            <rect width="24" height="24" fill="white"/>
        </clipPath>
    </defs>
</svg>
