<svg width="24" height="24" viewBox="0 0 24 24" fill="none"
    xmlns="http://www.w3.org/2000/svg">
    <g clip-path="url(#clip0_7627_321816)">
        <path d="M12 0.960022C11.9752 0.960601 11.9504 0.963109 11.926 0.967522C5.86901 1.00849 0.960022 5.93353 0.960022 12C0.960022 18.0919 5.90817 23.04 12 23.04C18.0919 23.04 23.04 18.0919 23.04 12C23.04 5.93416 18.132 1.00951 12.076 0.967522C12.0509 0.963011 12.0255 0.960503 12 0.960022ZM12 1.92002C17.5731 1.92002 22.08 6.42692 22.08 12C22.08 17.5731 17.5731 22.08 12 22.08C6.42692 22.08 1.92002 17.5731 1.92002 12C1.92002 6.42692 6.42692 1.92002 12 1.92002ZM8.16002 8.64002C7.77811 8.64002 7.41184 8.79174 7.14179 9.06179C6.87174 9.33184 6.72002 9.69811 6.72002 10.08C6.72002 10.4619 6.87174 10.8282 7.14179 11.0983C7.41184 11.3683 7.77811 11.52 8.16002 11.52C8.54193 11.52 8.9082 11.3683 9.17826 11.0983C9.44831 10.8282 9.60002 10.4619 9.60002 10.08C9.60002 9.69811 9.44831 9.33184 9.17826 9.06179C8.9082 8.79174 8.54193 8.64002 8.16002 8.64002ZM15.84 8.64002C15.4581 8.64002 15.0918 8.79174 14.8218 9.06179C14.5517 9.33184 14.4 9.69811 14.4 10.08C14.4 10.4619 14.5517 10.8282 14.8218 11.0983C15.0918 11.3683 15.4581 11.52 15.84 11.52C16.2219 11.52 16.5882 11.3683 16.8583 11.0983C17.1283 10.8282 17.28 10.4619 17.28 10.08C17.28 9.69811 17.1283 9.33184 16.8583 9.06179C16.5882 8.79174 16.2219 8.64002 15.84 8.64002ZM5.7394 13.9144C5.65194 13.9173 5.56693 13.944 5.49356 13.9917C5.42019 14.0394 5.36126 14.1063 5.32313 14.185C5.285 14.2638 5.26913 14.3515 5.27723 14.4386C5.28533 14.5257 5.31709 14.609 5.36908 14.6794C5.36908 14.6794 7.88002 18.24 12 18.24C16.12 18.24 18.631 14.6794 18.631 14.6794C18.7051 14.5757 18.7349 14.4468 18.714 14.3211C18.6931 14.1954 18.6231 14.0832 18.5194 14.0091C18.4157 13.935 18.2868 13.9051 18.1611 13.926C18.0354 13.947 17.9232 14.017 17.8491 14.1206C17.8491 14.1206 15.56 17.28 12 17.28C8.44002 17.28 6.15096 14.1206 6.15096 14.1206C6.10513 14.0545 6.04343 14.001 5.97151 13.965C5.8996 13.9289 5.81978 13.9115 5.7394 13.9144Z" fill="currentColor"/>
        <path d="M12 0.960022C11.9752 0.960601 11.9504 0.963109 11.926 0.967522C5.86901 1.00849 0.960022 5.93353 0.960022 12C0.960022 18.0919 5.90817 23.04 12 23.04C18.0919 23.04 23.04 18.0919 23.04 12C23.04 5.93416 18.132 1.00951 12.076 0.967522C12.0509 0.963011 12.0255 0.960503 12 0.960022ZM12 1.92002C17.5731 1.92002 22.08 6.42692 22.08 12C22.08 17.5731 17.5731 22.08 12 22.08C6.42692 22.08 1.92002 17.5731 1.92002 12C1.92002 6.42692 6.42692 1.92002 12 1.92002ZM8.16002 8.64002C7.77811 8.64002 7.41184 8.79174 7.14179 9.06179C6.87174 9.33184 6.72002 9.69811 6.72002 10.08C6.72002 10.4619 6.87174 10.8282 7.14179 11.0983C7.41184 11.3683 7.77811 11.52 8.16002 11.52C8.54193 11.52 8.9082 11.3683 9.17826 11.0983C9.44831 10.8282 9.60002 10.4619 9.60002 10.08C9.60002 9.69811 9.44831 9.33184 9.17826 9.06179C8.9082 8.79174 8.54193 8.64002 8.16002 8.64002ZM15.84 8.64002C15.4581 8.64002 15.0918 8.79174 14.8218 9.06179C14.5517 9.33184 14.4 9.69811 14.4 10.08C14.4 10.4619 14.5517 10.8282 14.8218 11.0983C15.0918 11.3683 15.4581 11.52 15.84 11.52C16.2219 11.52 16.5882 11.3683 16.8583 11.0983C17.1283 10.8282 17.28 10.4619 17.28 10.08C17.28 9.69811 17.1283 9.33184 16.8583 9.06179C16.5882 8.79174 16.2219 8.64002 15.84 8.64002ZM5.7394 13.9144C5.65194 13.9173 5.56693 13.944 5.49356 13.9917C5.42019 14.0394 5.36126 14.1063 5.32313 14.185C5.285 14.2638 5.26913 14.3515 5.27723 14.4386C5.28533 14.5257 5.31709 14.609 5.36908 14.6794C5.36908 14.6794 7.88002 18.24 12 18.24C16.12 18.24 18.631 14.6794 18.631 14.6794C18.7051 14.5757 18.7349 14.4468 18.714 14.3211C18.6931 14.1954 18.6231 14.0832 18.5194 14.0091C18.4157 13.935 18.2868 13.9051 18.1611 13.926C18.0354 13.947 17.9232 14.017 17.8491 14.1206C17.8491 14.1206 15.56 17.28 12 17.28C8.44002 17.28 6.15096 14.1206 6.15096 14.1206C6.10513 14.0545 6.04343 14.001 5.97151 13.965C5.8996 13.9289 5.81978 13.9115 5.7394 13.9144Z" fill="currentColor" fill-opacity="0.2"/>
    </g>
    <defs>
        <clipPath id="clip0_7627_321816">
            <rect width="24" height="24" fill="white"/>
        </clipPath>
    </defs>
</svg>
